# xmcd
#
# Track frame offsets: 
#        150
#        13742
#        26865
#        40335
#        53485
#        65197
#        78805
#        92020
#        102700
#        117530
#        129652
#        144572
#        158375
#        171285
#        184527
#        197130
#
# Disc length: 2816 seconds
#
# Revision: 2
# Processed by: cddbd v1.5.2PL0 Copyright (c) Steve Scherf et al.
# Submitted via: ExactAudioCopy v0.99pb5
#
DISCID=dd0afe10
DTITLE=Various Artist - Rendezvous unserer Kino-Lieblinge - Folge 2
DYEAR=2005
DGENRE=
TTITLE0=Theo Lingen and das Orchester Bruno Uher - Der Theodor Im Fußbal
TTITLE0=ltor
TTITLE1=Das Orchester Lutz Albrecht - Mitternachtsblues
TTITLE2=Bruce Low and Michael Jary and sein Filmorchester - Leise rauscht 
TTITLE2=es am Missouri
TTITLE3=Vera Molnar and Michael Jary and sein Filmorchester - Stop! Tu nic
TTITLE3=ht so als ob!
TTITLE4=Paul Hörbiger and Hans Moser and das Wiener Filmorchester, Ltg. Ha
TTITLE4=ns Lang - Hallo Dienstmann
TTITLE5=Gretl Schörg and das Orchester Karl Loubé - Ich habe endlich mei
TTITLE5=nen Typ gefunden
TTITLE6=Das Geller-Quintett and Charles Nowa, Hammond-Orgel - Komm, geh'
TTITLE6=mit mir gemeinsam
TTITLE7=Rita Gallos and das Wiener Tanzorchester, Ltg. Erwin Halletz - W
TTITLE7=enn die Männer wüßten
TTITLE8=Peter Alexander and Erwin Halletz and die Hallelujas - Was versteh
TTITLE8=t denn ein Cowboy von Liebe
TTITLE9=Maria Andergast and Paul Hörbiger and das Wiener Filmorchester, Lt
TTITLE9=g. Hans Lang - Stell Dir vor, es geht das Licht aus
TTITLE10=Vera Molnar and Fred Weyrich and Michael Jary and sein Filmorcheste
TTITLE10=r - Das ist die wahre Liebe
TTITLE11=Ingid Lutz and das Geller-Quintett and Michael Jary and sein Filmor
TTITLE11=chester - Maja Mambo
TTITLE12=Max Hansen and Michael Jary and sein Filmorchester - Ein Student 
TTITLE12=und eine ...dentin
TTITLE13=Evelyn Künneke and Michael Jary and sein Filmorchester - Mäcki-Bo
TTITLE13=ogie
TTITLE14=Peter Alexander and Hannelore Bollmann and Österreichisches Rundf
TTITLE14=unk-Tanzorchester, Ltg. Erwin Halletz - Ich sing heut vergnüg
TTITLE14=t vor
TTITLE15=Marika Rökk and Peter Kreuder am Flügel - Marika-Rökk-Filmerfol
TTITLE15=ge, Medley
EXTD=
EXTT0=
EXTT1=
EXTT2=
EXTT3=
EXTT4=
EXTT5=
EXTT6=
EXTT7=
EXTT8=
EXTT9=
EXTT10=
EXTT11=
EXTT12=
EXTT13=
EXTT14=
EXTT15=
PLAYORDER=
